<svg xmlns="http://www.w3.org/2000/svg" viewBox="0 0 1600 1250" width="1600" height="1250">
<style>
  .outline { fill: none; stroke: #f5f9ff; stroke-width: 2.2; }
  .thin    { fill: none; stroke: #f5f9ff; stroke-width: 1.3; }
  .hidden  { fill: none; stroke: #f5f9ff; stroke-width: 1.3; stroke-dasharray: 7 5; }
  .center  { fill: none; stroke: #f5f9ff; stroke-width: 1.1; stroke-dasharray: 14 4 3 4; }
  .dim     { fill: none; stroke: #f5f9ff; stroke-width: 1.1; }
  .hatch   { fill: url(#hatch); stroke: #f5f9ff; stroke-width: 2.2; }
  .bgfill  { fill: #0d3b66; stroke: none; }
  text     { fill: #f5f9ff; font-family: 'DejaVu Sans Mono', monospace; }
  .dimtxt  { font-size: 17px; }
  .lbl     { font-size: 20px; letter-spacing: 2px; }
  .small   { font-size: 14px; }
  .title   { font-size: 24px; letter-spacing: 3px; }
</style>
<defs>
  <pattern id="hatch" width="9" height="9" patternTransform="rotate(45)" patternUnits="userSpaceOnUse"><line x1="0" y1="0" x2="0" y2="9" stroke="#f5f9ff" stroke-width="1.1"/></pattern>
  <pattern id="grid" width="25" height="25" patternUnits="userSpaceOnUse"><path d="M 25 0 L 0 0 0 25" fill="none" stroke="rgba(245,249,255,0.10)" stroke-width="1"/></pattern>
</defs>
<rect width="1600" height="1250" fill="#0d3b66"/>
<rect width="1600" height="1250" fill="url(#grid)"/>
<rect class="thin" x="16.0" y="16.0" width="1568.0" height="1218.0"/>
<rect class="outline" x="34.0" y="34.0" width="1532.0" height="1182.0"/>
<rect class="outline" x="175.0" y="197.0" width="1250.0" height="218.0"/>
<circle class="thin" cx="208.8" cy="385.4" r="15.5"/>
<circle class="thin" cx="208.8" cy="226.6" r="15.5"/>
<line class="center" x1="208.8" y1="411.4" x2="208.8" y2="200.6"/>
<circle class="thin" cx="1391.2" cy="385.4" r="15.5"/>
<circle class="thin" cx="1391.2" cy="226.6" r="15.5"/>
<line class="center" x1="1391.2" y1="411.4" x2="1391.2" y2="200.6"/>
<line class="center" x1="182.8" y1="385.4" x2="234.8" y2="385.4"/>
<line class="center" x1="1365.2" y1="385.4" x2="1417.2" y2="385.4"/>
<line class="center" x1="182.8" y1="226.6" x2="234.8" y2="226.6"/>
<line class="center" x1="1365.2" y1="226.6" x2="1417.2" y2="226.6"/>
<rect class="outline" x="345.0" y="278.5" width="130.0" height="75.0"/>
<rect class="hidden" x="328.0" y="223.2" width="164.0" height="165.5"/>
<line class="center" x1="410.0" y1="181.0" x2="410.0" y2="431.0"/>
<rect class="outline" x="605.0" y="278.5" width="130.0" height="75.0"/>
<rect class="hidden" x="588.0" y="223.2" width="164.0" height="165.5"/>
<line class="center" x1="670.0" y1="181.0" x2="670.0" y2="431.0"/>
<rect class="outline" x="865.0" y="278.5" width="130.0" height="75.0"/>
<rect class="hidden" x="848.0" y="223.2" width="164.0" height="165.5"/>
<line class="center" x1="930.0" y1="181.0" x2="930.0" y2="431.0"/>
<rect class="outline" x="1125.0" y="278.5" width="130.0" height="75.0"/>
<rect class="hidden" x="1108.0" y="223.2" width="164.0" height="165.5"/>
<line class="center" x1="1190.0" y1="181.0" x2="1190.0" y2="431.0"/>
<line class="center" x1="155.0" y1="316.0" x2="1445.0" y2="316.0"/>
<line class="center" x1="460.0" y1="163.0" x2="460.0" y2="449.0"/>
<polygon fill="#f5f9ff" points="458.0,163.0 470.0,158.8 470.0,167.2"/>
<text class="lbl" x="444.0" y="169.0" text-anchor="end">A</text>
<polygon fill="#f5f9ff" points="458.0,449.0 470.0,444.8 470.0,453.2"/>
<text class="lbl" x="444.0" y="455.0" text-anchor="end">A</text>
<line class="dim" x1="175.0" y1="197.0" x2="175.0" y2="140.0"/>
<line class="dim" x1="1425.0" y1="197.0" x2="1425.0" y2="140.0"/>
<line class="dim" x1="175.0" y1="145.0" x2="1425.0" y2="145.0"/>
<polygon fill="#f5f9ff" points="175.0,145.0 187.0,140.8 187.0,149.2"/>
<polygon fill="#f5f9ff" points="1425.0,145.0 1413.0,149.2 1413.0,140.8"/>
<text class="dimtxt" x="800.0" y="138.0" text-anchor="middle">250</text>
<line class="dim" x1="175.0" y1="197.0" x2="118.0" y2="197.0"/>
<line class="dim" x1="175.0" y1="415.0" x2="118.0" y2="415.0"/>
<line class="dim" x1="123.0" y1="197.0" x2="123.0" y2="415.0"/>
<polygon fill="#f5f9ff" points="123.0,197.0 127.2,209.0 118.8,209.0"/>
<polygon fill="#f5f9ff" points="123.0,415.0 118.8,403.0 127.2,403.0"/>
<text class="dimtxt" x="116.0" y="306.0" text-anchor="middle" transform="rotate(-90 116.0 306.0)">43.6</text>
<line class="dim" x1="208.8" y1="385.4" x2="208.8" y2="468.0"/>
<line class="dim" x1="1391.2" y1="385.4" x2="1391.2" y2="468.0"/>
<line class="dim" x1="208.8" y1="463.0" x2="1391.2" y2="463.0"/>
<polygon fill="#f5f9ff" points="208.8,463.0 220.8,458.8 220.8,467.2"/>
<polygon fill="#f5f9ff" points="1391.2,463.0 1379.2,467.2 1379.2,458.8"/>
<text class="dimtxt" x="800.0" y="456.0" text-anchor="middle">236.5 *</text>
<line class="dim" x1="1391.2" y1="226.6" x2="1482.0" y2="226.6"/>
<line class="dim" x1="1391.2" y1="385.4" x2="1482.0" y2="385.4"/>
<line class="dim" x1="1477.0" y1="226.6" x2="1477.0" y2="385.4"/>
<polygon fill="#f5f9ff" points="1477.0,226.6 1481.2,238.6 1472.8,238.6"/>
<polygon fill="#f5f9ff" points="1477.0,385.4 1472.8,373.4 1481.2,373.4"/>
<text class="dimtxt" x="1470.0" y="306.0" text-anchor="middle" transform="rotate(-90 1470.0 306.0)">31.75</text>
<line class="dim" x1="930.0" y1="175.0" x2="1190.0" y2="175.0"/>
<polygon fill="#f5f9ff" points="930.0,175.0 942.0,170.8 942.0,179.2"/>
<polygon fill="#f5f9ff" points="1190.0,175.0 1178.0,179.2 1178.0,170.8"/>
<text class="dimtxt" x="1060.0" y="168.0" text-anchor="middle">52</text>
<line class="dim" x1="1125.0" y1="353.5" x2="1125.0" y2="446.0"/>
<line class="dim" x1="1255.0" y1="353.5" x2="1255.0" y2="446.0"/>
<line class="dim" x1="1125.0" y1="441.0" x2="1255.0" y2="441.0"/>
<polygon fill="#f5f9ff" points="1125.0,441.0 1137.0,436.8 1137.0,445.2"/>
<polygon fill="#f5f9ff" points="1255.0,441.0 1243.0,445.2 1243.0,436.8"/>
<text class="dimtxt" x="1190.0" y="434.0" text-anchor="middle">26</text>
<line class="dim" x1="1255.0" y1="278.5" x2="1294.0" y2="278.5"/>
<line class="dim" x1="1255.0" y1="353.5" x2="1294.0" y2="353.5"/>
<line class="dim" x1="1289.0" y1="278.5" x2="1289.0" y2="353.5"/>
<polygon fill="#f5f9ff" points="1289.0,278.5 1293.2,290.5 1284.8,290.5"/>
<polygon fill="#f5f9ff" points="1289.0,353.5 1284.8,341.5 1293.2,341.5"/>
<text class="dimtxt" x="1282.0" y="316.0" text-anchor="middle" transform="rotate(-90 1282.0 316.0)">15</text>
<polygon fill="#f5f9ff" points="197.8,215.6 185.8,211.4 191.0,204.9"/>
<line class="dim" x1="197.8" y1="215.6" x2="157.8" y2="183.6"/>
<line class="dim" x1="157.8" y1="183.6" x2="143.8" y2="183.6"/>
<text class="dimtxt" x="137.8" y="188.6" text-anchor="end">4x ⌀6.2</text>
<text class="lbl" x="800.0" y="507.0" text-anchor="middle">FRONT VIEW</text>
<text class="small" x="175.0" y="531.0" text-anchor="start">WINDOW CENTERS 2 BELOW PANEL CENTERLINE — POCKETS (DASHED) ON BACK</text>
<polygon class="hatch" points="170.0,1000.0 317.6,1000.0 317.6,964.0 261.8,964.0 261.8,916.0 233.0,916.0 233.0,964.0 206.0,964.0 206.0,892.0 170.0,892.0"/>
<polygon class="hatch" points="497.6,1000.0 693.2,1000.0 693.2,892.0 657.2,892.0 657.2,964.0 630.2,964.0 630.2,916.0 601.4,916.0 601.4,978.4 529.4,978.4 529.4,964.0 497.6,964.0"/>
<line class="dim" x1="170.0" y1="964.0" x2="125.0" y2="964.0"/>
<line class="dim" x1="170.0" y1="1000.0" x2="125.0" y2="1000.0"/>
<line class="dim" x1="130.0" y1="964.0" x2="130.0" y2="1000.0"/>
<polygon fill="#f5f9ff" points="130.0,964.0 134.2,976.0 125.8,976.0"/>
<polygon fill="#f5f9ff" points="130.0,1000.0 125.8,988.0 134.2,988.0"/>
<text class="dimtxt" x="123.0" y="982.0" text-anchor="middle" transform="rotate(-90 123.0 982.0)">3</text>
<line class="dim" x1="693.2" y1="892.0" x2="742.2" y2="892.0"/>
<line class="dim" x1="693.2" y1="1000.0" x2="742.2" y2="1000.0"/>
<line class="dim" x1="737.2" y1="892.0" x2="737.2" y2="1000.0"/>
<polygon fill="#f5f9ff" points="737.2,892.0 741.4,904.0 733.0,904.0"/>
<polygon fill="#f5f9ff" points="737.2,1000.0 733.0,988.0 741.4,988.0"/>
<text class="dimtxt" x="730.2" y="946.0" text-anchor="middle" transform="rotate(-90 730.2 946.0)">9</text>
<polygon fill="#f5f9ff" points="615.8,916.0 606.1,907.8 613.3,903.5"/>
<line class="dim" x1="615.8" y1="916.0" x2="589.8" y2="872.0"/>
<line class="dim" x1="589.8" y1="872.0" x2="575.8" y2="872.0"/>
<text class="dimtxt" x="569.8" y="877.0" text-anchor="end">POCKET WALL, RISE 4</text>
<polygon fill="#f5f9ff" points="675.2,892.0 677.4,879.5 684.7,883.5"/>
<line class="dim" x1="675.2" y1="892.0" x2="695.2" y2="856.0"/>
<line class="dim" x1="695.2" y1="856.0" x2="709.2" y2="856.0"/>
<text class="dimtxt" x="715.2" y="861.0" text-anchor="start">FLANGE 3 x 6</text>
<polygon fill="#f5f9ff" points="565.4,978.4 575.8,985.7 569.0,990.6"/>
<line class="dim" x1="565.4" y1="978.4" x2="595.4" y2="1020.4"/>
<line class="dim" x1="595.4" y1="1020.4" x2="609.4" y2="1020.4"/>
<text class="dimtxt" x="615.4" y="1025.4" text-anchor="start">SOLDER RELIEF, 1.2 DEEP *</text>
<line class="dim" x1="317.6" y1="1000.0" x2="317.6" y2="1035.0"/>
<line class="dim" x1="497.6" y1="1000.0" x2="497.6" y2="1035.0"/>
<line class="dim" x1="317.6" y1="1030.0" x2="497.6" y2="1030.0"/>
<polygon fill="#f5f9ff" points="317.6,1030.0 329.6,1025.8 329.6,1034.2"/>
<polygon fill="#f5f9ff" points="497.6,1030.0 485.6,1034.2 485.6,1025.8"/>
<text class="dimtxt" x="407.6" y="1023.0" text-anchor="middle">WINDOW 15</text>
<text class="lbl" x="431.6" y="1078.0" text-anchor="middle">SECTION A-A</text>
<text class="small" x="431.6" y="1100.0" text-anchor="middle">FRONT FACE DOWN = PRINT ORIENTATION</text>
<rect class="outline" x="1013.2" y="541.4" width="393.6" height="397.2"/>
<rect class="outline" x="1042.0" y="570.2" width="336.0" height="339.6"/>
<rect class="bgfill" x="1115.0" y="539.4" width="190.0" height="32.8"/>
<line class="outline" x1="1114.0" y1="541.4" x2="1114.0" y2="570.2"/>
<line class="outline" x1="1306.0" y1="541.4" x2="1306.0" y2="570.2"/>
<rect class="bgfill" x="1012.2" y="693.0" width="30.8" height="94.0"/>
<line class="outline" x1="1012.2" y1="692.0" x2="1043.0" y2="692.0"/>
<line class="outline" x1="1012.2" y1="788.0" x2="1043.0" y2="788.0"/>
<rect class="bgfill" x="1377.0" y="693.0" width="30.8" height="94.0"/>
<line class="outline" x1="1377.0" y1="692.0" x2="1407.8" y2="692.0"/>
<line class="outline" x1="1377.0" y1="788.0" x2="1407.8" y2="788.0"/>
<rect class="hidden" x="1042.0" y="570.2" width="336.0" height="72.0"/>
<line class="dim" x1="1042.0" y1="909.8" x2="1042.0" y2="977.6"/>
<line class="dim" x1="1378.0" y1="909.8" x2="1378.0" y2="977.6"/>
<line class="dim" x1="1042.0" y1="972.6" x2="1378.0" y2="972.6"/>
<polygon fill="#f5f9ff" points="1042.0,972.6 1054.0,968.4 1054.0,976.8"/>
<polygon fill="#f5f9ff" points="1378.0,972.6 1366.0,976.8 1366.0,968.4"/>
<text class="dimtxt" x="1210.0" y="965.6" text-anchor="middle">28</text>
<line class="dim" x1="1378.0" y1="570.2" x2="1451.8" y2="570.2"/>
<line class="dim" x1="1378.0" y1="909.8" x2="1451.8" y2="909.8"/>
<line class="dim" x1="1446.8" y1="570.2" x2="1446.8" y2="909.8"/>
<polygon fill="#f5f9ff" points="1446.8,570.2 1451.0,582.2 1442.6,582.2"/>
<polygon fill="#f5f9ff" points="1446.8,909.8 1442.6,897.8 1451.0,897.8"/>
<text class="dimtxt" x="1439.8" y="740.0" text-anchor="middle" transform="rotate(-90 1439.8 740.0)">28.3</text>
<line class="dim" x1="1114.0" y1="541.4" x2="1114.0" y2="510.4"/>
<line class="dim" x1="1306.0" y1="541.4" x2="1306.0" y2="510.4"/>
<line class="dim" x1="1114.0" y1="515.4" x2="1306.0" y2="515.4"/>
<polygon fill="#f5f9ff" points="1114.0,515.4 1126.0,511.2 1126.0,519.6"/>
<polygon fill="#f5f9ff" points="1306.0,515.4 1294.0,519.6 1294.0,511.2"/>
<text class="dimtxt" x="1210.0" y="508.4" text-anchor="middle">16</text>
<line class="dim" x1="1013.2" y1="692.0" x2="972.2" y2="692.0"/>
<line class="dim" x1="1013.2" y1="788.0" x2="972.2" y2="788.0"/>
<line class="dim" x1="977.2" y1="692.0" x2="977.2" y2="788.0"/>
<polygon fill="#f5f9ff" points="977.2,692.0 981.4,704.0 973.0,704.0"/>
<polygon fill="#f5f9ff" points="977.2,788.0 973.0,776.0 981.4,776.0"/>
<text class="dimtxt" x="970.2" y="740.0" text-anchor="middle" transform="rotate(-90 970.2 740.0)">8</text>
<polygon fill="#f5f9ff" points="1392.4,940.6 1403.0,947.7 1396.2,952.7"/>
<line class="dim" x1="1392.4" y1="940.6" x2="1422.4" y2="980.6"/>
<line class="dim" x1="1422.4" y1="980.6" x2="1436.4" y2="980.6"/>
<text class="dimtxt" x="1442.4" y="985.6" text-anchor="start">WALL 2.4</text>
<polygon fill="#f5f9ff" points="1210.0,606.2 1221.7,611.1 1216.1,617.3"/>
<line class="dim" x1="1210.0" y1="606.2" x2="1270.0" y2="660.2"/>
<line class="dim" x1="1270.0" y1="660.2" x2="1284.0" y2="660.2"/>
<text class="dimtxt" x="1290.0" y="665.2" text-anchor="start">SOLDER RELIEF BAND 6</text>
<text class="lbl" x="1210.0" y="1026.6" text-anchor="middle">POCKET DETAIL</text>
<text class="small" x="1210.0" y="1048.6" text-anchor="middle">VIEW FROM BACK — PCB 27.5 x 27.8 * + 0.25 CLEARANCE/SIDE</text>
<rect class="outline" x="966.0" y="1126.0" width="600.0" height="90.0"/>
<line class="thin" x1="966.0" y1="1164.0" x2="1566.0" y2="1164.0"/>
<line class="thin" x1="1266.0" y1="1164.0" x2="1266.0" y2="1216.0"/>
<line class="thin" x1="1418.0" y1="1164.0" x2="1418.0" y2="1216.0"/>
<text class="title" x="1266.0" y="1152.0" text-anchor="middle">OLED DISPLAY RACK — 1U / 10" RACK</text>
<text class="small" x="974.0" y="1182.0" text-anchor="start">oled_display_rack_1u.scad</text>
<text class="small" x="974.0" y="1202.0" text-anchor="start">DRAWN: 3vilM33pl3</text>
<text class="small" x="1274.0" y="1182.0" text-anchor="start">UNITS: MM</text>
<text class="small" x="1274.0" y="1202.0" text-anchor="start">DATE: 2026-08-11</text>
<text class="small" x="1426.0" y="1182.0" text-anchor="start">SHEET 1 OF 1</text>
<text class="small" x="1426.0" y="1202.0" text-anchor="start">PETG/PLA</text>
<text class="small" x="60.0" y="1200.0" text-anchor="start">* MEASURE ME — VERIFY WITH CALIPERS AGAINST THE REAL MODULES / RACK BEFORE PRINTING</text>
</svg>
